<svg width="123" height="89" viewBox="0 0 123 89" fill="none" xmlns="http://www.w3.org/2000/svg">
<path d="M90.5159 37.8994C90.5159 39.4454 90.3584 40.9529 90.0591 42.4053C97.795 42.6307 104 49.2574 104 57.3993C104 65.1761 98.3389 71.5706 91.0899 72.3247V72.3996H30.8287C23.7151 71.5116 18.2 65.075 18.2 57.3991C18.2 49.2669 24.3903 42.6462 32.1134 42.406C33.0853 35.279 38.947 29.7994 46.0329 29.7994C47.7637 29.7994 49.4214 30.1263 50.9527 30.7243C53.7698 22.4908 61.2978 16.5996 70.1419 16.5996C81.3941 16.5996 90.5159 26.1358 90.5159 37.8994Z" fill="url(#paint0_linear_5460_2028)"/>
<path d="M90.5159 37.8994C90.5159 39.4454 90.3584 40.9529 90.0591 42.4053C97.795 42.6307 104 49.2574 104 57.3993C104 65.1761 98.3389 71.5706 91.0899 72.3247V72.3996H30.8287C23.7151 71.5116 18.2 65.075 18.2 57.3991C18.2 49.2669 24.3903 42.6462 32.1134 42.406C33.0853 35.279 38.947 29.7994 46.0329 29.7994C47.7637 29.7994 49.4214 30.1263 50.9527 30.7243C53.7698 22.4908 61.2978 16.5996 70.1419 16.5996C81.3941 16.5996 90.5159 26.1358 90.5159 37.8994Z" fill="url(#paint1_linear_5460_2028)" fill-opacity="0.3"/>
<path d="M104.268 32.91C104.111 31.4975 103.87 30.1078 103.549 28.7474L104.522 28.518C104.187 27.0973 103.768 25.7076 103.27 24.3556L102.332 24.7014C101.842 23.3724 101.274 22.081 100.632 20.8338L101.522 20.3765C100.856 19.0822 100.114 17.8342 99.3007 16.6395L98.474 17.2022C97.679 16.0342 96.8142 14.9189 95.8853 13.8634L96.636 13.2027C95.6763 12.1122 94.65 11.0834 93.5626 10.1237L92.9009 10.8735C91.8447 9.94128 90.7296 9.07652 89.5612 8.28636L90.1215 7.458C88.9214 6.6464 87.6664 5.91091 86.3623 5.25897L85.9151 6.15343C84.6615 5.52672 83.3614 4.97979 82.0202 4.51957L82.3448 3.57371C80.9815 3.10589 79.5772 2.72492 78.1373 2.43765L77.9416 3.41832C76.5772 3.14611 75.1798 2.96065 73.7542 2.86813L73.819 1.87023C73.0992 1.82352 72.3727 1.7998 71.64 1.7998C70.9273 1.7998 70.2203 1.82241 69.5196 1.86694L69.583 2.86493C68.1956 2.9531 66.8342 3.12984 65.5034 3.3893L65.3121 2.40778C63.9098 2.68119 62.5404 3.04364 61.2092 3.48867L61.5263 4.43708C60.2172 4.87474 58.9461 5.39481 57.7182 5.99077L57.2816 5.09114C56.0045 5.71098 54.7731 6.41027 53.5928 7.18201L54.1401 8.01897C52.9903 8.77078 51.8902 9.59367 50.8452 10.4809L50.198 9.71854C49.1209 10.6329 48.1009 11.6134 47.1434 12.653L47.8789 13.3305C46.9507 14.3382 46.0827 15.4033 45.2804 16.5191L44.4685 15.9353C44.166 16.356 43.8726 16.7837 43.5885 17.2181C43.5712 17.218 43.5539 17.218 43.5366 17.218C42.8803 17.218 42.2305 17.2422 41.5878 17.2898L41.6616 18.2871C40.3941 18.3809 39.1564 18.5692 37.9542 18.8445L37.731 17.8697C36.4484 18.1634 35.2046 18.5522 34.0058 19.0278L34.3745 19.9573C33.2046 20.4215 32.0792 20.9717 31.0047 21.5996L30.5002 20.7362C29.374 21.3943 28.302 22.1342 27.2909 22.9468L27.9174 23.7263C26.9421 24.5101 26.0252 25.3645 25.1733 26.2809L24.4409 25.6C23.558 26.5496 22.7425 27.5631 22.001 28.6315L22.8225 29.2017C22.1114 30.2262 21.4707 31.3033 20.9067 32.4247L20.0133 31.9753C19.791 32.4173 19.5802 32.866 19.3813 33.3207C18.8395 33.5046 18.3061 33.7057 17.7815 33.9232L18.1646 34.847C16.8711 35.3834 15.6334 36.0241 14.4599 36.7579L13.9297 35.91C12.7009 36.6784 11.5403 37.5447 10.4567 38.4968L11.1168 39.248C10.0724 40.1658 9.10177 41.1668 8.2135 42.2397L7.44323 41.6019C6.52535 42.7106 5.69246 43.893 4.95321 45.1373L5.81294 45.648C5.10574 46.8384 4.48725 48.0879 3.96572 49.3854L3.03786 49.0125C2.50367 50.3416 2.06762 51.7193 1.73796 53.1346L2.71189 53.3615C2.39933 54.7034 2.1859 56.0804 2.07916 57.4824L1.08205 57.4065C1.02766 58.121 1 58.8417 1 59.5673C1 60.2393 1.02396 60.9068 1.07113 61.569L2.06861 61.4979C2.16105 62.7953 2.34589 64.0709 2.61701 65.3171L1.63987 65.5297C1.92574 66.8437 2.3041 68.1262 2.76823 69.3688L3.70502 69.0189C4.15757 70.2306 4.69472 71.403 5.30979 72.5281L4.43235 73.0078C5.07439 74.1823 5.79832 75.3069 6.59713 76.3731L7.39744 75.7735C8.16995 76.8047 9.01504 77.7791 9.92587 78.6884L9.21934 79.3961C10.1633 80.3385 11.1755 81.2137 12.2489 82.0128L12.8461 81.2107C13.8752 81.9768 14.9624 82.6703 16.1011 83.2828L15.6274 84.1635C16.7966 84.7925 18.0183 85.3393 19.2856 85.7957L19.6244 84.8549C20.8231 85.2866 22.064 85.6341 23.3411 85.89L23.1446 86.8705C23.7957 87.001 24.4557 87.1085 25.1239 87.1921L25.1857 87.1998H25.248H27.3179V86.1998H31.4577V87.1998H35.5975V86.1998H39.7373V87.1998H43.8771V86.1998H48.0169V87.1998H52.1566V86.1998H56.2964V87.1998H60.4362V86.1998H64.576V87.1998H68.7158V86.1998H72.8556V87.1998H76.9954V86.1998H81.1351V87.1998H85.2749V86.1998H89.4147V87.1998H93.5545V86.1998H97.6943V87.1998H99.7642C100.669 87.1998 101.587 87.1596 102.499 87.062L102.393 86.0677C104.162 85.8783 105.891 85.4652 107.45 84.6998L107.891 85.5975C108.74 85.1804 109.55 84.6641 110.298 84.0297C110.883 83.5336 111.448 83.0066 111.992 82.4523L111.279 81.7516C112.303 80.7091 113.254 79.5622 114.124 78.3352L114.94 78.9136C115.817 77.6762 116.613 76.3619 117.321 74.9939L116.433 74.5345C117.112 73.2217 117.708 71.856 118.214 70.459L119.154 70.7995C119.675 69.36 120.103 67.8875 120.431 66.4039L119.455 66.1883C119.778 64.7248 120 63.2511 120.113 61.79L121.11 61.8672C121.17 61.0972 121.2 60.3296 121.2 59.5675C121.2 58.897 121.176 58.2308 121.13 57.5697L120.132 57.6399C120.041 56.3441 119.859 55.0693 119.591 53.8234L120.569 53.6135C120.287 52.3003 119.914 51.0182 119.456 49.7756L118.518 50.1215C118.07 48.9085 117.54 47.7346 116.931 46.6086L117.811 46.1333C117.175 44.9559 116.458 43.8287 115.665 42.7608L114.862 43.3567C114.094 42.322 113.254 41.3454 112.347 40.4357L113.056 39.7298C112.114 38.7844 111.103 37.9082 110.029 37.1109L109.433 37.9136C108.404 37.1488 107.315 36.4596 106.175 35.855L106.643 34.9715C106.235 34.7552 105.821 34.5494 105.4 34.3543C105.365 33.8333 105.319 33.3151 105.262 32.7997L104.268 32.91ZM43.9816 18.222C43.8829 18.2202 43.784 18.219 43.685 18.2184L43.6866 17.945L43.9832 18.1324L43.9816 18.222Z" stroke="#EFEEEB" stroke-width="2" stroke-dasharray="4 4"/>
<path d="M112.4 59.1996C112.4 48.9271 104.072 40.5996 93.7999 40.5996C83.5274 40.5996 75.1999 48.9271 75.1999 59.1996C75.1999 69.4721 83.5274 77.7996 93.7999 77.7996C104.072 77.7996 112.4 69.4721 112.4 59.1996Z" fill="#1FE596"/>
<path d="M112.4 59.1996C112.4 48.9271 104.072 40.5996 93.7999 40.5996C83.5274 40.5996 75.1999 48.9271 75.1999 59.1996C75.1999 69.4721 83.5274 77.7996 93.7999 77.7996C104.072 77.7996 112.4 69.4721 112.4 59.1996Z" fill="url(#paint2_linear_5460_2028)"/>
<path d="M87.4999 59.7995L90.6756 62.9752C90.9099 63.2096 91.2898 63.2096 91.5241 62.9752L99.4999 54.9995" stroke="white" stroke-width="2.4" stroke-linecap="round"/>
<defs>
<linearGradient id="paint0_linear_5460_2028" x1="83.8999" y1="75.0996" x2="85.5067" y2="21.4242" gradientUnits="userSpaceOnUse">
<stop stop-color="#7E60FF"/>
<stop offset="1" stop-color="#C7B0FF"/>
</linearGradient>
<linearGradient id="paint1_linear_5460_2028" x1="79.9892" y1="14.7319" x2="54.8622" y2="37.6025" gradientUnits="userSpaceOnUse">
<stop stop-color="white"/>
<stop offset="1" stop-color="white" stop-opacity="0"/>
</linearGradient>
<linearGradient id="paint2_linear_5460_2028" x1="93.7999" y1="77.7996" x2="93.7999" y2="40.5996" gradientUnits="userSpaceOnUse">
<stop stop-color="#02C6A1"/>
<stop offset="1" stop-color="#02C6A1" stop-opacity="0"/>
</linearGradient>
</defs>
</svg>
