<svg width="24" height="25" viewBox="0 0 24 25" fill="none" xmlns="http://www.w3.org/2000/svg">
<g id="ic-cloud-arrow-down">
<g id="Vector">
<path fill-rule="evenodd" clip-rule="evenodd" d="M14.8321 9.14453L14.3989 8.39562C13.6186 7.04665 12.1637 6.14453 10.5 6.14453C8.01472 6.14453 6 8.15925 6 10.6445V11.9614L4.99987 12.3148C3.83265 12.7274 3 13.8407 3 15.1445C3 16.8014 4.34315 18.1445 6 18.1445H16.5C18.9853 18.1445 21 16.1298 21 13.6445C21 11.1593 18.9853 9.14453 16.5 9.14453H14.8321ZM15.6973 7.64453H16.5C19.8137 7.64453 22.5 10.3308 22.5 13.6445C22.5 16.9582 19.8137 19.6445 16.5 19.6445H6C3.51472 19.6445 1.5 17.6298 1.5 15.1445C1.5 13.1852 2.75221 11.5183 4.5 10.9006V10.6445C4.5 7.33082 7.18629 4.64453 10.5 4.64453C12.7208 4.64453 14.6599 5.85113 15.6973 7.64453Z" fill="#0C0C14"/>
<path d="M12.7425 16.4249C12.3324 16.8349 11.6676 16.8349 11.2575 16.4249L9.21967 14.387C8.92678 14.0941 8.92678 13.6192 9.21967 13.3264C9.51256 13.0335 9.98744 13.0335 10.2803 13.3264L11.25 14.296V9.89453C11.25 9.48032 11.5858 9.14453 12 9.14453C12.4142 9.14453 12.75 9.48032 12.75 9.89453V14.296L13.7197 13.3264C14.0126 13.0335 14.4874 13.0335 14.7803 13.3264C15.0732 13.6192 15.0732 14.0941 14.7803 14.387L12.7425 16.4249Z" fill="#0C0C14"/>
</g>
</g>
</svg>
