<svg width="160" height="109" viewBox="0 0 160 109" fill="none" xmlns="http://www.w3.org/2000/svg">
<rect width="107.852" height="7.53802" transform="matrix(1 0 0 -1 0.00390625 108.087)" fill="#5D6382"/>
<rect x="10.2354" y="36.1025" width="87.8055" height="57.9848" fill="#2D3142"/>
<path fill-rule="evenodd" clip-rule="evenodd" d="M89.7227 14.8946H86.2082C71.6993 14.8946 59.9375 27.059 59.9375 42.0646C59.9375 57.0702 71.6993 69.2346 86.2082 69.2346H132.182C143.063 69.2346 151.885 60.1113 151.885 48.8571C151.885 39.9846 146.402 32.4365 138.749 29.6391V28.4796C138.749 13.474 126.988 1.30957 112.479 1.30957C102.755 1.30957 94.265 6.77344 89.7227 14.8946Z" fill="#60698E"/>
<path d="M84.9088 47.1362C82.8748 45.3344 79.7621 45.4067 77.8145 47.353C76.8449 48.3219 76.3403 49.5783 76.3001 50.848C76.291 51.1337 76.052 51.358 75.7661 51.349C75.4802 51.3399 75.2558 51.101 75.2648 50.8153C75.3131 49.2929 75.919 47.7834 77.0821 46.6211C79.4383 44.2664 83.2157 44.1976 85.655 46.4146V45.3765C85.655 45.0906 85.8868 44.8588 86.1727 44.8588C86.4586 44.8588 86.6904 45.0906 86.6904 45.3765V47.4468C86.6904 47.8471 86.3659 48.1716 85.9656 48.1716H83.8938C83.6079 48.1716 83.3761 47.9399 83.3761 47.6539C83.3761 47.368 83.6079 47.1362 83.8938 47.1362H84.9088Z" fill="white"/>
<path d="M87.6917 50.9509C87.6888 50.6651 87.4547 50.4357 87.1687 50.4385C86.8827 50.4414 86.6531 50.6754 86.656 50.9612C86.6693 52.3039 86.1638 53.649 85.1392 54.673C83.1916 56.6193 80.0788 56.6915 78.0447 54.8896H78.9222C79.2081 54.8896 79.4399 54.6578 79.4399 54.3719C79.4399 54.086 79.2081 53.8542 78.9222 53.8542H76.8503C76.45 53.8542 76.1255 54.1787 76.1255 54.579L76.1255 56.6493C76.1255 56.9353 76.3573 57.1671 76.6433 57.1671C76.9292 57.1671 77.161 56.9353 77.161 56.6493L77.161 55.4824C79.5938 57.8302 83.4706 57.8044 85.8716 55.4049C87.1009 54.1764 87.7077 52.5602 87.6917 50.9509Z" fill="white"/>
<mask id="path-5-inside-1_11213_32446" fill="white">
<path d="M3.48047 33.2887C3.48047 31.3672 5.03811 29.8096 6.95956 29.8096H100.895C102.816 29.8096 104.374 31.3672 104.374 33.2887V100.551H3.48047V33.2887Z"/>
</mask>
<path d="M3.48047 33.2887C3.48047 31.3672 5.03811 29.8096 6.95956 29.8096H100.895C102.816 29.8096 104.374 31.3672 104.374 33.2887V100.551H3.48047V33.2887Z" stroke="#45495D" stroke-width="13.2537" mask="url(#path-5-inside-1_11213_32446)"/>
</svg>
