<svg width="160" height="108" viewBox="0 0 160 108" fill="none" xmlns="http://www.w3.org/2000/svg">
<rect width="107.004" height="7.47877" transform="matrix(1 0 0 -1 0.139099 107.325)" fill="#E0D9FF"/>
<rect x="10.2866" y="35.9033" width="87.1154" height="57.529" fill="#E0D9FF"/>
<path fill-rule="evenodd" clip-rule="evenodd" d="M89.1492 14.8659H85.6622C71.2674 14.8659 59.5981 26.9347 59.5981 41.8224C59.5981 56.71 71.2674 68.7788 85.6622 68.7788H131.275C142.071 68.7788 150.823 59.7272 150.823 48.5615C150.823 39.7587 145.383 32.27 137.791 29.4946V28.3442C137.791 13.4565 126.121 1.3877 111.726 1.3877C102.079 1.3877 93.6558 6.80862 89.1492 14.8659Z" fill="#6D4AFF"/>
<path d="M84.3728 46.8477C82.3547 45.0601 79.2665 45.1318 77.3342 47.0628C76.3723 48.0241 75.8717 49.2706 75.8318 50.5304C75.8228 50.8138 75.5856 51.0363 75.3019 51.0274C75.0183 51.0184 74.7956 50.7813 74.8046 50.4979C74.8525 48.9875 75.4537 47.4898 76.6076 46.3366C78.9453 44.0005 82.693 43.9322 85.1131 46.1317V45.1018C85.1131 44.8182 85.3431 44.5882 85.6267 44.5882C85.9104 44.5882 86.1404 44.8182 86.1404 45.1018V47.1559C86.1404 47.5531 85.8184 47.875 85.4213 47.875H83.3657C83.0821 47.875 82.8521 47.645 82.8521 47.3614C82.8521 47.0777 83.0821 46.8477 83.3657 46.8477H84.3728Z" fill="white"/>
<path d="M87.1338 50.6324C87.131 50.3488 86.8987 50.1213 86.6149 50.1241C86.3311 50.1269 86.1034 50.3591 86.1062 50.6426C86.1195 51.9748 85.6179 53.3094 84.6014 54.3252C82.6691 56.2563 79.5808 56.3279 77.5627 54.5402H78.4332C78.7169 54.5402 78.9469 54.3102 78.9469 54.0266C78.9469 53.7429 78.7169 53.5129 78.4332 53.5129H76.3777C75.9805 53.5129 75.6586 53.8349 75.6586 54.232L75.6586 56.2861C75.6586 56.5698 75.8885 56.7997 76.1722 56.7997C76.4559 56.7997 76.6859 56.5698 76.6859 56.2861L76.6859 55.1283C79.0996 57.4577 82.9459 57.432 85.328 55.0514C86.5477 53.8326 87.1497 52.2291 87.1338 50.6324Z" fill="white"/>
<mask id="path-5-inside-1_11213_32577" fill="white">
<path d="M3.58929 33.1129C3.58929 31.2065 5.13469 29.6611 7.04104 29.6611H100.238C102.144 29.6611 103.69 31.2065 103.69 33.1129V99.8465H3.58929V33.1129Z"/>
</mask>
<path d="M3.58929 33.1129C3.58929 31.2065 5.13469 29.6611 7.04104 29.6611H100.238C102.144 29.6611 103.69 31.2065 103.69 33.1129V99.8465H3.58929V33.1129Z" stroke="#EBE7FF" stroke-width="13.1495" mask="url(#path-5-inside-1_11213_32577)"/>
</svg>
