<svg width="123" height="88" viewBox="0 0 123 88" fill="none" xmlns="http://www.w3.org/2000/svg">
<path d="M90.5159 37.8994C90.5159 39.4454 90.3584 40.9529 90.0591 42.4053C97.795 42.6307 104 49.2574 104 57.3993C104 65.1761 98.3389 71.5706 91.0899 72.3247V72.3996H30.8287C23.7151 71.5116 18.2 65.075 18.2 57.3991C18.2 49.2669 24.3903 42.6462 32.1134 42.406C33.0853 35.279 38.947 29.7994 46.0329 29.7994C47.7637 29.7994 49.4214 30.1263 50.9527 30.7243C53.7698 22.4908 61.2978 16.5996 70.1419 16.5996C81.3941 16.5996 90.5159 26.1358 90.5159 37.8994Z" fill="url(#paint0_linear_5460_2233)"/>
<path d="M90.5159 37.8994C90.5159 39.4454 90.3584 40.9529 90.0591 42.4053C97.795 42.6307 104 49.2574 104 57.3993C104 65.1761 98.3389 71.5706 91.0899 72.3247V72.3996H30.8287C23.7151 71.5116 18.2 65.075 18.2 57.3991C18.2 49.2669 24.3903 42.6462 32.1134 42.406C33.0853 35.279 38.947 29.7994 46.0329 29.7994C47.7637 29.7994 49.4214 30.1263 50.9527 30.7243C53.7698 22.4908 61.2978 16.5996 70.1419 16.5996C81.3941 16.5996 90.5159 26.1358 90.5159 37.8994Z" fill="url(#paint1_linear_5460_2233)" fill-opacity="0.3"/>
<path d="M104.219 32.1901C104.01 30.495 103.679 28.8341 103.235 27.2184L104.2 26.9536C103.736 25.2639 103.152 23.622 102.457 22.0399L101.541 22.4421C100.857 20.8858 100.063 19.3891 99.1681 17.9637L100.015 17.4319C99.0863 15.9531 98.0518 14.5487 96.9215 13.2314L96.1626 13.8826C95.0596 12.5973 93.8629 11.3976 92.5822 10.2959L93.2343 9.53782C91.9148 8.40273 90.5082 7.3682 89.0246 6.44717L88.4971 7.29677C87.0664 6.40859 85.5623 5.62954 83.9946 4.97177L84.3814 4.04964C82.7869 3.38068 81.1284 2.83328 79.4154 2.41956L79.1806 3.39161C77.5599 3.00017 75.8889 2.73218 74.1763 2.5985L74.2542 1.60153C73.3924 1.53426 72.5206 1.5 71.64 1.5C70.6872 1.5 69.7446 1.54041 68.8136 1.61958L68.8984 2.61598C67.0461 2.77349 65.2421 3.08912 63.4978 3.54867L63.243 2.58167C61.4002 3.06717 59.6221 3.70832 57.9214 4.48923L58.3386 5.39801C56.6683 6.16496 55.0745 7.0711 53.5699 8.10058L53.0052 7.27528C51.4477 8.34099 49.9835 9.53457 48.6255 10.8393L49.3184 11.5604C48.0009 12.8262 46.7861 14.2002 45.6865 15.6664L44.8865 15.0664C44.4346 15.6689 44.0016 16.2866 43.5885 16.9183C43.5776 16.9182 43.5668 16.9182 43.5559 16.9182C43.5495 16.9182 43.5431 16.9182 43.5366 16.9182C42.6587 16.9182 41.7924 16.9615 40.9392 17.0462L41.0379 18.0413C39.3461 18.2091 37.71 18.5456 36.1431 19.0328L35.8463 18.0778C34.1711 18.5986 32.5725 19.2847 31.0659 20.1153L31.5487 20.991C30.0823 21.7994 28.7058 22.7506 27.4347 23.8242L26.7895 23.0602C25.4662 24.1777 24.2535 25.4224 23.1668 26.7727L23.9459 27.3997C22.9037 28.6948 21.9815 30.0914 21.1943 31.5693L20.3117 31.0992C19.9778 31.7262 19.6673 32.3672 19.3813 33.0209C18.609 33.283 17.8537 33.5801 17.1169 33.91L17.5255 34.8227C15.8207 35.5859 14.2181 36.5324 12.7378 37.6354L12.1403 36.8335C10.5942 37.9855 9.17746 39.3012 7.9107 40.7523L8.66403 41.4099C7.44848 42.8023 6.37558 44.3248 5.4654 45.9507L4.59282 45.4623C3.65988 47.1288 2.89191 48.8999 2.30887 50.7489L3.26257 51.0496C2.71106 52.7986 2.33106 54.6199 2.14082 56.4893L1.14596 56.3881C1.04938 57.337 1 58.2978 1 59.2675C1 60.1084 1.03752 60.9422 1.11108 61.7673L2.10713 61.6784C2.25181 63.301 2.54104 64.8875 2.96268 66.4232L1.99836 66.688C2.44356 68.3095 3.03107 69.8761 3.74756 71.3717L4.64941 70.9396C5.34747 72.3967 6.17254 73.7838 7.1114 75.0847L6.30051 75.6699C7.27812 77.0246 8.37484 78.2893 9.5769 79.4469L10.2706 78.7266C11.4274 79.8408 12.6853 80.8519 14.0309 81.7436L13.4785 82.5772C14.8624 83.4943 16.336 84.29 17.886 84.9475L18.2765 84.0269C19.7412 84.6483 21.2763 85.1414 22.8696 85.4912L22.6551 86.468C23.4642 86.6456 24.2877 86.7877 25.1239 86.8923L25.1857 86.9H25.248H27.9093V85.9H33.2319V86.9H38.5545V85.9H43.8771V86.9H49.1996V85.9H54.5222V86.9H59.8448V85.9H65.1674V86.9H70.49V85.9H75.8126V86.9H81.1351V85.9H86.4577V86.9H91.7803V85.9H97.1029V86.9H99.7642C100.669 86.9 101.587 86.8598 102.499 86.7622L102.393 85.7679C104.162 85.5785 105.891 85.1654 107.45 84.4L107.891 85.2977C108.74 84.8806 109.55 84.3643 110.298 83.7299C110.883 83.2338 111.448 82.7068 111.992 82.1525L111.279 81.4518C112.303 80.4092 113.254 79.2624 114.124 78.0354L114.94 78.6138C115.817 77.3764 116.613 76.0621 117.321 74.6941L116.433 74.2347C117.112 72.9219 117.708 71.5562 118.214 70.1592L119.154 70.4997C119.675 69.0602 120.103 67.5877 120.431 66.1041L119.455 65.8885C119.778 64.425 120 62.9513 120.113 61.4902L121.11 61.5674C121.17 60.7974 121.2 60.0298 121.2 59.2677C121.2 58.3719 121.158 57.4836 121.075 56.6053L120.08 56.6989C119.917 54.9706 119.593 53.2825 119.12 51.6536L120.081 51.375C119.581 49.654 118.923 47.9966 118.121 46.4239L117.23 46.8781C116.447 45.3431 115.523 43.8918 114.473 42.5452L115.261 41.9301C114.165 40.525 112.937 39.2291 111.591 38.0647L110.937 38.8208C109.643 37.7011 108.239 36.7083 106.739 35.8636L107.23 34.9923C106.634 34.6569 106.024 34.3438 105.4 34.0545C105.355 33.3877 105.292 32.7253 105.211 32.0678L104.219 32.1901ZM43.9816 17.9222C43.8828 17.9204 43.784 17.9192 43.685 17.9186L43.6866 17.6452L43.9832 17.8326L43.9816 17.9222Z" stroke="#EFEEEB" stroke-width="2" stroke-dasharray="5.29 5.29"/>
<path d="M112.4 58.8998C112.4 48.6273 104.073 40.2998 93.8 40.2998C83.5275 40.2998 75.2 48.6273 75.2 58.8998C75.2 69.1723 83.5275 77.4998 93.8 77.4998C104.073 77.4998 112.4 69.1723 112.4 58.8998Z" fill="#616161"/>
<path fill-rule="evenodd" clip-rule="evenodd" d="M85.7348 60.5521L87.0762 60.9776C87.3132 61.0527 87.4985 61.2361 87.5944 61.4656C87.6908 61.6966 87.6899 61.959 87.5743 62.1811L86.9228 63.4338C86.8262 63.6196 86.8611 63.8465 87.0091 63.9946L88.703 65.6896C88.8511 65.8379 89.0783 65.8729 89.2642 65.7761L90.5158 65.1242C90.7377 65.0086 91 65.0076 91.2308 65.1042C91.4598 65.1999 91.6427 65.3849 91.7177 65.6216L92.1432 66.9649C92.2063 67.1644 92.3915 67.3 92.6008 67.3H94.9885C95.1978 67.3 95.3829 67.1644 95.4461 66.9649L95.8716 65.6216C95.9465 65.3849 96.1295 65.1999 96.3585 65.1042C96.5893 65.0076 96.8516 65.0086 97.0735 65.1242L98.3251 65.7761C98.511 65.8729 98.7382 65.8379 98.8863 65.6896L100.58 63.9946C100.728 63.8465 100.763 63.6196 100.666 63.4338L100.014 62.1786C99.8989 61.9581 99.8979 61.6975 99.9938 61.4682C100.09 61.2388 100.276 61.0559 100.513 60.9823L101.862 60.5642C102.063 60.5019 102.2 60.3161 102.2 60.1057V57.716C102.2 57.5068 102.064 57.3217 101.865 57.2584L100.524 56.833C100.287 56.7578 100.101 56.5744 100.005 56.3449C99.909 56.1139 99.9099 55.8515 100.025 55.6294L100.677 54.3767C100.774 54.1909 100.739 53.964 100.591 53.8159L98.8969 52.1209C98.7487 51.9727 98.5215 51.9377 98.3356 52.0345L97.0834 52.6867C96.8619 52.802 96.6001 52.803 96.3696 52.7066C96.1407 52.6109 95.9578 52.4257 95.8833 52.1889L95.457 50.8358C95.3941 50.6359 95.2087 50.5 94.9992 50.5H92.6113C92.402 50.5 92.2169 50.6356 92.1537 50.8351L91.7282 52.1784C91.6533 52.4151 91.4703 52.6001 91.2413 52.6958C91.0105 52.7924 90.7482 52.7914 90.5264 52.6758L89.275 52.0241C89.0896 51.9275 88.8631 51.962 88.7149 52.1094L87.0101 53.804C86.8612 53.952 86.8257 54.1796 86.9226 54.3659L87.5743 55.6189C87.6899 55.841 87.6908 56.1034 87.5944 56.3344C87.4985 56.5639 87.3132 56.7473 87.0762 56.8224L85.7348 57.2479C85.5354 57.3111 85.3999 57.4962 85.3999 57.7054V60.0946C85.3999 60.3038 85.5354 60.4889 85.7348 60.5521ZM101 58.2429L100.161 57.9768C99.5531 57.7841 99.1154 57.3275 98.8981 56.8074C98.6788 56.2823 98.6648 55.6449 98.9609 55.0757L99.369 54.291L98.4214 53.3428L97.6377 53.751C97.0688 54.0472 96.4315 54.0333 95.9066 53.8137C95.3865 53.5961 94.9303 53.1577 94.7387 52.5495L94.4711 51.7H93.1385L92.8722 52.5408C92.6799 53.1481 92.2238 53.5857 91.7043 53.8029C91.179 54.0226 90.5413 54.0366 89.972 53.7401L89.1875 53.3315L88.2315 54.2818L88.639 55.0652C88.935 55.6344 88.921 56.2717 88.7017 56.7969C88.4844 57.317 88.0467 57.7736 87.439 57.9663L86.5999 58.2324V59.5676L87.439 59.8337C88.0467 60.0264 88.4844 60.483 88.7017 61.0031C88.921 61.5283 88.935 62.1656 88.639 62.7348L88.2308 63.5195L89.1784 64.4678L89.9615 64.0599C90.5308 63.7634 91.1685 63.7774 91.6937 63.997C92.2133 64.2143 92.6693 64.6519 92.8617 65.2592L93.128 66.1H94.4613L94.7276 65.2592C94.92 64.6519 95.376 64.2143 95.8955 63.9971C96.4208 63.7774 97.0585 63.7634 97.6278 64.0599L98.4109 64.4678L99.3585 63.5195L98.949 62.7324C98.6538 62.1648 98.6677 61.5291 98.8867 61.0052C99.1051 60.4829 99.5465 60.0257 100.158 59.8361L101 59.5751V58.2429Z" fill="white"/>
<path fill-rule="evenodd" clip-rule="evenodd" d="M93.7999 56.5C92.4744 56.5 91.3999 57.5745 91.3999 58.9C91.3999 60.2255 92.4744 61.3 93.7999 61.3C95.1254 61.3 96.1999 60.2255 96.1999 58.9C96.1999 57.5745 95.1254 56.5 93.7999 56.5ZM90.1999 58.9C90.1999 56.9118 91.8117 55.3 93.7999 55.3C95.7881 55.3 97.3999 56.9118 97.3999 58.9C97.3999 60.8882 95.7881 62.5 93.7999 62.5C91.8117 62.5 90.1999 60.8882 90.1999 58.9Z" fill="white"/>
<defs>
<linearGradient id="paint0_linear_5460_2233" x1="86.5" y1="25.5" x2="27.3478" y2="22.4193" gradientUnits="userSpaceOnUse">
<stop stop-color="#ADADAD"/>
<stop offset="1" stop-color="#979797"/>
</linearGradient>
<linearGradient id="paint1_linear_5460_2233" x1="79.9892" y1="14.7319" x2="54.8622" y2="37.6025" gradientUnits="userSpaceOnUse">
<stop stop-color="white"/>
<stop offset="1" stop-color="white" stop-opacity="0"/>
</linearGradient>
</defs>
</svg>
