<svg width="32" height="32" viewBox="0 0 32 32" fill="none" xmlns="http://www.w3.org/2000/svg">
<rect width="32" height="32" rx="10" fill="#FCFCFC"/>
<path fill-rule="evenodd" clip-rule="evenodd" d="M22 20V13.5C22 12.9477 21.5523 12.5 21 12.5H16.5667C16.307 12.5 16.0544 12.4158 15.8467 12.26L14.4333 11.2C14.2602 11.0702 14.0497 11 13.8333 11H11C10.4477 11 10 11.4477 10 12V20C10 20.5523 10.4477 21 11 21H21C21.5523 21 22 20.5523 22 20ZM11 10C9.89543 10 9 10.8954 9 12V20C9 21.1046 9.89543 22 11 22H21C22.1046 22 23 21.1046 23 20V13.5C23 12.3954 22.1046 11.5 21 11.5H16.5667C16.5234 11.5 16.4813 11.486 16.4467 11.46L15.0333 10.4C14.6871 10.1404 14.2661 10 13.8333 10H11Z" fill="#0C0C14"/>
</svg>
