<svg width="123" height="88" viewBox="0 0 123 88" fill="none" xmlns="http://www.w3.org/2000/svg">
<path d="M90.5159 37.5996C90.5159 39.1456 90.3584 40.6531 90.0591 42.1055C97.795 42.3309 104 48.9576 104 57.0994C104 64.8763 98.3389 71.2708 91.0899 72.0249V72.0998H30.8287C23.7151 71.2118 18.2 64.7752 18.2 57.0993C18.2 48.9671 24.3903 42.3463 32.1134 42.1062C33.0853 34.9792 38.947 29.4996 46.0329 29.4996C47.7637 29.4996 49.4214 29.8265 50.9527 30.4245C53.7698 22.191 61.2978 16.2998 70.1419 16.2998C81.3941 16.2998 90.5159 25.836 90.5159 37.5996Z" fill="url(#paint0_linear_5460_28662)"/>
<path d="M90.5159 37.5996C90.5159 39.1456 90.3584 40.6531 90.0591 42.1055C97.795 42.3309 104 48.9576 104 57.0994C104 64.8763 98.3389 71.2708 91.0899 72.0249V72.0998H30.8287C23.7151 71.2118 18.2 64.7752 18.2 57.0993C18.2 48.9671 24.3903 42.3463 32.1134 42.1062C33.0853 34.9792 38.947 29.4996 46.0329 29.4996C47.7637 29.4996 49.4214 29.8265 50.9527 30.4245C53.7698 22.191 61.2978 16.2998 70.1419 16.2998C81.3941 16.2998 90.5159 25.836 90.5159 37.5996Z" fill="url(#paint1_linear_5460_28662)" fill-opacity="0.3"/>
<path d="M104.268 32.6102C104.111 31.1976 103.87 29.808 103.549 28.4476L104.522 28.2182C104.187 26.7975 103.768 25.4078 103.27 24.0558L102.332 24.4016C101.842 23.0726 101.274 21.7812 100.632 20.534L101.522 20.0767C100.856 18.7824 100.114 17.5344 99.3007 16.3397L98.474 16.9024C97.679 15.7344 96.8142 14.6191 95.8853 13.5636L96.636 12.9029C95.6763 11.8124 94.65 10.7836 93.5626 9.82391L92.9009 10.5736C91.8447 9.64147 90.7296 8.77672 89.5612 7.98655L90.1215 7.1582C88.9214 6.34659 87.6664 5.61111 86.3623 4.95916L85.9151 5.85362C84.6615 5.22691 83.3614 4.67999 82.0202 4.21977L82.3448 3.27391C80.9815 2.80609 79.5772 2.42512 78.1373 2.13784L77.9416 3.11851C76.5772 2.8463 75.1798 2.66085 73.7542 2.56833L73.819 1.57043C73.0992 1.52372 72.3727 1.5 71.64 1.5C70.9273 1.5 70.2203 1.52261 69.5196 1.56714L69.583 2.56513C68.1956 2.6533 66.8342 2.83004 65.5034 3.08949L65.3121 2.10797C63.9098 2.38138 62.5404 2.74383 61.2092 3.18887L61.5263 4.13727C60.2172 4.57494 58.9461 5.09501 57.7182 5.69097L57.2816 4.79134C56.0045 5.41118 54.7731 6.11046 53.5928 6.8822L54.1401 7.71916C52.9903 8.47097 51.8902 9.29386 50.8452 10.1811L50.198 9.41874C49.1209 10.3331 48.1009 11.3136 47.1434 12.3532L47.8789 13.0306C46.9507 14.0384 46.0827 15.1035 45.2804 16.2193L44.4685 15.6355C44.166 16.0562 43.8726 16.4839 43.5885 16.9183C43.5712 16.9182 43.5539 16.9182 43.5366 16.9182C42.8803 16.9182 42.2305 16.9424 41.5878 16.99L41.6616 17.9873C40.3941 18.0811 39.1564 18.2694 37.9542 18.5447L37.731 17.5699C36.4484 17.8636 35.2046 18.2524 34.0058 18.728L34.3745 19.6575C33.2046 20.1217 32.0792 20.6719 31.0047 21.2998L30.5002 20.4364C29.374 21.0945 28.302 21.8344 27.2909 22.647L27.9174 23.4265C26.9421 24.2103 26.0252 25.0647 25.1733 25.9811L24.4409 25.3002C23.558 26.2498 22.7425 27.2633 22.001 28.3317L22.8225 28.9019C22.1114 29.9264 21.4707 31.0035 20.9067 32.1249L20.0133 31.6755C19.791 32.1175 19.5802 32.5661 19.3813 33.0209C18.8395 33.2048 18.3061 33.4059 17.7815 33.6234L18.1646 34.5472C16.8711 35.0836 15.6334 35.7243 14.4599 36.4581L13.9297 35.6102C12.7009 36.3786 11.5403 37.2449 10.4567 38.197L11.1168 38.9482C10.0724 39.866 9.10177 40.867 8.2135 41.9399L7.44323 41.3021C6.52535 42.4108 5.69246 43.5932 4.95321 44.8375L5.81294 45.3482C5.10574 46.5386 4.48725 47.7881 3.96572 49.0856L3.03786 48.7127C2.50367 50.0418 2.06762 51.4195 1.73796 52.8348L2.71189 53.0617C2.39933 54.4036 2.1859 55.7806 2.07916 57.1826L1.08205 57.1067C1.02766 57.8212 1 58.5419 1 59.2675C1 59.9395 1.02396 60.607 1.07113 61.2692L2.06861 61.1981C2.16105 62.4955 2.34589 63.7711 2.61701 65.0173L1.63987 65.2299C1.92574 66.5439 2.3041 67.8264 2.76823 69.069L3.70502 68.7191C4.15757 69.9308 4.69472 71.1032 5.30979 72.2283L4.43235 72.708C5.07439 73.8824 5.79832 75.0071 6.59713 76.0733L7.39744 75.4737C8.16995 76.5049 9.01504 77.4793 9.92587 78.3886L9.21934 79.0963C10.1633 80.0387 11.1755 80.9139 12.2489 81.713L12.8461 80.9109C13.8752 81.677 14.9624 82.3705 16.1011 82.983L15.6274 83.8637C16.7966 84.4927 18.0183 85.0395 19.2856 85.4959L19.6244 84.5551C20.8231 84.9868 22.064 85.3343 23.3411 85.5902L23.1446 86.5707C23.7957 86.7012 24.4557 86.8087 25.1239 86.8923L25.1857 86.9H25.248H27.3179V85.9H31.4577V86.9H35.5975V85.9H39.7373V86.9H43.8771V85.9H48.0169V86.9H52.1566V85.9H56.2964V86.9H60.4362V85.9H64.576V86.9H68.7158V85.9H72.8556V86.9H76.9954V85.9H81.1351V86.9H85.2749V85.9H89.4147V86.9H93.5545V85.9H97.6943V86.9H99.7642C100.669 86.9 101.587 86.8598 102.499 86.7622L102.393 85.7679C104.162 85.5785 105.891 85.1654 107.45 84.4L107.891 85.2977C108.74 84.8806 109.55 84.3643 110.298 83.7299C110.883 83.2338 111.448 82.7068 111.992 82.1525L111.279 81.4518C112.303 80.4092 113.254 79.2624 114.124 78.0354L114.94 78.6138C115.817 77.3764 116.613 76.0621 117.321 74.6941L116.433 74.2347C117.112 72.9219 117.708 71.5562 118.214 70.1592L119.154 70.4997C119.675 69.0602 120.103 67.5877 120.431 66.1041L119.455 65.8885C119.778 64.425 120 62.9513 120.113 61.4902L121.11 61.5674C121.17 60.7974 121.2 60.0298 121.2 59.2677C121.2 58.5972 121.176 57.931 121.13 57.2699L120.132 57.3401C120.041 56.0443 119.859 54.7695 119.591 53.5236L120.569 53.3137C120.287 52.0005 119.914 50.7184 119.456 49.4758L118.518 49.8217C118.07 48.6087 117.54 47.4348 116.931 46.3088L117.811 45.8335C117.175 44.6561 116.458 43.5289 115.665 42.461L114.862 43.0569C114.094 42.0222 113.254 41.0456 112.347 40.1359L113.056 39.43C112.114 38.4846 111.103 37.6084 110.029 36.8111L109.433 37.6138C108.404 36.849 107.315 36.1598 106.175 35.5552L106.643 34.6717C106.235 34.4554 105.821 34.2495 105.4 34.0545C105.365 33.5335 105.319 33.0153 105.262 32.4999L104.268 32.6102ZM43.9816 17.9222C43.8829 17.9204 43.784 17.9192 43.685 17.9186L43.6866 17.6452L43.9832 17.8326L43.9816 17.9222Z" stroke="#EFEEEB" stroke-width="2" stroke-dasharray="4 4"/>
<path d="M112.4 58.8998C112.4 48.6273 104.072 40.2998 93.7999 40.2998C83.5274 40.2998 75.1999 48.6273 75.1999 58.8998C75.1999 69.1723 83.5274 77.4998 93.7999 77.4998C104.072 77.4998 112.4 69.1723 112.4 58.8998Z" fill="#616161"/>
<path d="M89.0208 53.721C89.0208 53.0278 89.5827 52.4658 90.2759 52.4658H91.5311C92.2243 52.4658 92.7863 53.0278 92.7863 53.721V63.7624C92.7863 64.39 92.1587 65.0176 91.5311 65.0176H90.2759C89.6483 65.0176 89.0208 64.4556 89.0208 63.7624V53.721Z" fill="white"/>
<path d="M95.2966 53.721C95.2966 53.0934 95.9242 52.4658 96.5518 52.4658H97.807C98.4346 52.4658 99.0622 53.0934 99.0622 53.721V63.7624C99.0622 64.39 98.4346 65.0176 97.807 65.0176H96.5518C95.9242 65.0176 95.2966 64.39 95.2966 63.7624V53.721Z" fill="white"/>
<defs>
<linearGradient id="paint0_linear_5460_28662" x1="86.5" y1="25.2002" x2="27.3478" y2="22.1195" gradientUnits="userSpaceOnUse">
<stop stop-color="#ADADAD"/>
<stop offset="1" stop-color="#979797"/>
</linearGradient>
<linearGradient id="paint1_linear_5460_28662" x1="79.9892" y1="14.4321" x2="54.8622" y2="37.3027" gradientUnits="userSpaceOnUse">
<stop stop-color="white"/>
<stop offset="1" stop-color="white" stop-opacity="0"/>
</linearGradient>
</defs>
</svg>
