<svg width="33" height="32" viewBox="0 0 33 32" fill="none" xmlns="http://www.w3.org/2000/svg">
<path fill-rule="evenodd" clip-rule="evenodd" d="M30.5 25.6V10C30.5 8.67452 29.4553 7.6 28.1667 7.6H17.8222C17.2164 7.6 16.6269 7.39789 16.1422 7.024L12.8444 4.48C12.4406 4.16843 11.9493 4 11.4444 4H4.83333C3.54467 4 2.5 5.07452 2.5 6.4V25.6C2.5 26.9255 3.54467 28 4.83333 28H28.1667C29.4553 28 30.5 26.9255 30.5 25.6Z" fill="#F5A623"/>
<path d="M19.8232 24.0789C20.46 24.0789 20.8284 23.3832 20.4547 22.8862L16.0793 17.0661C15.8924 16.8175 15.5082 16.8175 15.3214 17.0661L12.1395 21.2986L10.3703 18.9453C10.1835 18.6968 9.79927 18.6968 9.61244 18.9453L6.64975 22.8862C6.27612 23.3832 6.64452 24.0789 7.28131 24.0789H19.8232Z" fill="#C56708"/>
<path d="M12.8498 15.4398C12.8498 16.2351 12.2183 16.8797 11.4393 16.8797C10.6604 16.8797 10.0289 16.2351 10.0289 15.4398C10.0289 14.6446 10.6604 14 11.4393 14C12.2183 14 12.8498 14.6446 12.8498 15.4398Z" fill="#C56708"/>
</svg>
