<svg width="163" height="159" viewBox="0 0 163 159" fill="none" xmlns="http://www.w3.org/2000/svg">
<rect x="30" y="0.949219" width="99" height="158" rx="3" fill="#EBE7FF"/>
<rect x="36" y="5.94922" width="87" height="147" rx="3" fill="#E0D9FF"/>
<path d="M70.8932 59.24H86.2532V79.72H98.6436L78.5732 99.7904L58.5028 79.72H70.8932V59.24Z" fill="#645B8A"/>
<rect width="45" height="4" transform="translate(55.5028 106)" fill="#645B8A"/>
<circle cx="60" cy="12.9492" r="4" fill="#EC3E7C" fill-opacity="0.2"/>
<circle cx="60" cy="12.9492" r="3" fill="#EC3E7C"/>
<rect x="66" y="9.94922" width="35" height="6" rx="3" fill="#EBE7FF"/>
<rect x="104" y="15.9492" width="59.0056" height="59.0056" rx="12.4704" fill="#EBE7FF"/>
<path d="M112.451 58.2372C110.729 58.2372 109.733 56.3364 110.743 54.9786L122.572 39.0778C123.077 38.3989 124.115 38.3989 124.62 39.0778L133.222 50.6412L138.005 44.2119C138.51 43.533 139.549 43.533 140.054 44.2119L148.063 54.9786C149.073 56.3364 148.077 58.2372 146.356 58.2372H112.451Z" fill="#6D4AFF"/>
<path d="M131.309 34.6344C131.309 36.8069 133.016 38.5681 135.122 38.5681C137.228 38.5681 138.935 36.8069 138.935 34.6344C138.935 32.4619 137.228 30.7007 135.122 30.7007C133.016 30.7007 131.309 32.4619 131.309 34.6344Z" fill="#6D4AFF"/>
</svg>
