<svg width="110" height="98" viewBox="0 0 110 98" fill="none" xmlns="http://www.w3.org/2000/svg">
<path fill-rule="evenodd" clip-rule="evenodd" d="M109.73 87.4789V24.8682C109.73 19.5483 105.646 15.2357 100.608 15.2357H60.1689C57.8005 15.2357 55.496 14.4246 53.6013 12.924L40.7094 2.71359C39.1305 1.46309 37.2101 0.787109 35.2365 0.787109H9.39188C4.35415 0.787109 0.270264 5.09969 0.270264 10.4195V87.4789C0.270264 92.7988 4.35415 97.1113 9.39188 97.1113H100.608C105.646 97.1113 109.73 92.7988 109.73 87.4789Z" fill="#EBE7FF"/>
<path fill-rule="evenodd" clip-rule="evenodd" d="M44.416 46.3994H42.1498C32.7941 46.3994 25.2098 54.1216 25.2098 63.6474C25.2098 73.1732 32.7941 80.8954 42.1498 80.8954H71.7948C78.8115 80.8954 84.4998 75.1038 84.4998 67.9594C84.4998 62.327 80.9643 57.5353 76.0298 55.7595V55.0234C76.0298 45.4976 68.4455 37.7754 59.0898 37.7754C52.8196 37.7754 47.345 41.244 44.416 46.3994Z" fill="#6D4AFF"/>
<path d="M60.1624 57.4151C57.0962 54.6991 52.4042 54.8081 49.4685 57.7419C48.007 59.2024 47.2463 61.0962 47.1857 63.0103C47.172 63.4409 46.8116 63.779 46.3807 63.7653C45.9498 63.7517 45.6115 63.3915 45.6252 62.9609C45.6979 60.6661 46.6113 58.3906 48.3644 56.6386C51.9161 53.0892 57.6101 52.9854 61.2871 56.3273V54.7625C61.2871 54.3315 61.6365 53.9821 62.0675 53.9821C62.4985 53.9821 62.8479 54.3315 62.8479 54.7625V57.8833C62.8479 58.4867 62.3587 58.9759 61.7553 58.9759H58.6323C58.2013 58.9759 57.8519 58.6265 57.8519 58.1955C57.8519 57.7645 58.2013 57.4151 58.6323 57.4151H60.1624Z" fill="white"/>
<path d="M64.3572 63.1653C64.3529 62.7344 63.9999 62.3886 63.5688 62.3929C63.1377 62.3972 62.7917 62.75 62.7959 63.1808C62.8161 65.2048 62.0541 67.2324 60.5096 68.7759C57.5738 71.7098 52.8817 71.8186 49.8155 69.1025H51.1381C51.5692 69.1025 51.9186 68.7531 51.9186 68.3221C51.9186 67.8911 51.5692 67.5417 51.1381 67.5417H48.0151C47.4117 67.5417 46.9226 68.0308 46.9226 68.6342L46.9226 71.755C46.9226 72.186 47.272 72.5354 47.703 72.5354C48.134 72.5354 48.4834 72.186 48.4834 71.755L48.4834 69.996C52.1506 73.535 57.9944 73.4961 61.6137 69.8792C63.4667 68.0273 64.3813 65.5912 64.3572 63.1653Z" fill="white"/>
</svg>
